<?xml version="1.0" encoding="iso-8859-1"?>
<!-- Uploaded to: SVG Repo, www.svgrepo.com, Generator: SVG Repo Mixer Tools -->
<svg version="1.1" id="Layer_1" xmlns="http://www.w3.org/2000/svg" xmlns:xlink="http://www.w3.org/1999/xlink" 
	 viewBox="0 0 512 512" xml:space="preserve">
<g>
	<rect x="23.349" y="201.545" style="fill:#F2F2F2;" width="465.298" height="243.639"/>
	<rect x="10.199" y="445.184" style="fill:#F2F2F2;" width="491.602" height="31.934"/>
</g>
<rect x="337.93" y="281.885" style="fill:#FFAD61;" width="102.165" height="163.289"/>
<rect x="73.924" y="268.738" style="fill:#BCC987;" width="217.478" height="65.754"/>
<rect x="73.924" y="334.492" style="fill:#FFAD61;" width="217.478" height="37.426"/>
<path style="fill:#BCC987;" d="M157.068,201.13H65.275v-85.777c0-10.082,8.173-18.255,18.255-18.255h55.283
	c10.082,0,18.255,8.173,18.255,18.255v85.777H157.068z"/>
<path style="fill:#73C1DD;" d="M157.068,201.13h106.072V53.139c0-10.082-8.173-18.255-18.255-18.255h-69.562
	c-10.082,0-18.255,8.173-18.255,18.255V201.13H157.068z"/>
<rect x="191.745" y="69.558" style="fill:#BCC987;" width="36.717" height="131.57"/>
<g>
	<path style="fill:#4D3D36;" d="M501.801,434.98h-2.951V201.544c0-5.632-4.567-10.199-10.199-10.199H273.339V53.139
		c0-15.689-12.765-28.454-28.454-28.454h-69.562c-15.689-0.001-28.455,12.764-28.455,28.454v34.929
		c-2.556-0.756-5.258-1.169-8.055-1.169H83.529c-15.688,0-28.454,12.765-28.454,28.455v75.992H23.349
		c-5.632,0-10.199,4.567-10.199,10.199v233.435h-2.951C4.567,434.981,0,439.548,0,445.18v31.936c0,5.632,4.567,10.199,10.199,10.199
		h491.602c5.632,0,10.199-4.567,10.199-10.199V445.18C512,439.547,507.433,434.98,501.801,434.98z M218.263,190.931h-16.319V79.76
		h16.319V190.931z M167.267,53.139c0-4.442,3.614-8.055,8.055-8.055h69.562c4.442,0,8.055,3.614,8.055,8.055v137.793H238.66V69.562
		c0-5.632-4.567-10.199-10.199-10.199h-36.717c-5.632,0-10.199,4.567-10.199,10.199v121.371h-14.279V53.139H167.267z
		 M75.474,115.354c0-4.442,3.614-8.055,8.055-8.055h55.283c4.442,0,8.055,3.614,8.055,8.055v75.578H75.474V115.354z M33.548,211.744
		h444.905V434.98h-28.155V281.89c0-5.632-4.567-10.199-10.199-10.199H337.928c-5.632,0-10.199,4.567-10.199,10.199v153.091H33.548
		V211.744z M348.127,373.011h11.048c5.632,0,10.199-4.567,10.199-10.199c0-5.632-4.567-10.199-10.199-10.199h-11.048v-60.524h81.771
		v142.892h-81.771V373.011z M491.602,455.378v11.537H20.398v-11.537H491.602z"/>
	<path style="fill:#4D3D36;" d="M63.726,371.915c0,5.632,4.567,10.199,10.199,10.199h217.478c5.632,0,10.199-4.567,10.199-10.199
		V268.74c0-5.632-4.567-10.199-10.199-10.199H73.925c-5.632,0-10.199,4.567-10.199,10.199
		C63.726,268.74,63.726,371.915,63.726,371.915z M84.124,278.939h197.079v45.351H84.124V278.939z M281.204,361.716H84.124v-17.028
		h197.079v17.028H281.204z"/>
	<path style="fill:#4D3D36;" d="M354.117,244.547h101.154c5.632,0,10.199-4.567,10.199-10.199s-4.567-10.199-10.199-10.199H354.117
		c-5.632,0-10.199,4.567-10.199,10.199S348.485,244.547,354.117,244.547z"/>
	<path style="fill:#4D3D36;" d="M332.96,234.348c0-5.632-4.567-10.199-10.199-10.199h-8.093c-5.632,0-10.199,4.567-10.199,10.199
		s4.567,10.199,10.199,10.199h8.093C328.393,244.547,332.96,239.981,332.96,234.348z"/>
</g>
</svg>